<?xml version="1.0" encoding="UTF-8" standalone="no"?>
<!-- Created with Inkscape (http://www.inkscape.org/) -->
<svg id="svg2" xmlns:rdf="http://www.w3.org/1999/02/22-rdf-syntax-ns#" xmlns="http://www.w3.org/2000/svg" height="100.46" width="130.15" version="1.1" xmlns:cc="http://creativecommons.org/ns#" xmlns:dc="http://purl.org/dc/elements/1.1/">
 <metadata id="metadata7">
  <rdf:RDF>
   <cc:Work rdf:about="">
    <dc:format>image/svg+xml</dc:format>
    <dc:type rdf:resource="http://purl.org/dc/dcmitype/StillImage"/>
    <dc:title/>
   </cc:Work>
  </rdf:RDF>
 </metadata>
 <g id="layer1" transform="translate(-78.240739,-159.76959)">
  <path id="rect3761" fill="#00ffbf" d="m106.02,162.08,79.229,0c12.824,0,23.148,10.324,23.148,23.148v33.333c0,12.824-10.324,23.148-23.148,23.148l-6.5438,18.519-37.963-18.519h-34.722c-12.824,0-23.148-10.324-23.148-23.148v-33.333c0-12.824,10.324-23.148,23.148-23.148z"/>
  <path id="path3765" d="m101.39,159.77,79.229,0c12.824,0,23.148,10.324,23.148,23.148v33.333c0,12.824-10.324,23.148-23.148,23.148l-6.5438,18.519-37.963-18.519h-34.722c-12.824,0-23.148-10.324-23.148-23.148v-33.333c0-12.824,10.324-23.148,23.148-23.148z" fill="#008d6f"/>
 </g>
</svg>
